<mxfile host="app.diagrams.net" modified="2022-12-09T15:45:29.270Z" agent="5.0 (Windows NT 10.0; Win64; x64) AppleWebKit/537.36 (KHTML, like Gecko) Chrome/108.0.0.0 Safari/537.36" etag="Vo8mkpJC33UJmgbSUVZ4" version="20.6.2" type="github">
  <diagram id="buX0yJRNC2Mj3BMU6naC" name="Page-1">
    <mxGraphModel dx="868" dy="450" grid="1" gridSize="10" guides="1" tooltips="1" connect="1" arrows="1" fold="1" page="1" pageScale="1" pageWidth="850" pageHeight="1100" math="0" shadow="0">
      <root>
        <mxCell id="0" />
        <mxCell id="1" parent="0" />
        <mxCell id="WfT6F_lpD8eF-kmQsFi5-1" value="&lt;h2&gt;&lt;font face=&quot;Garamond&quot;&gt;Login&lt;/font&gt;&lt;/h2&gt;" style="ellipse;whiteSpace=wrap;html=1;" parent="1" vertex="1">
          <mxGeometry x="390" y="30" width="105" height="40" as="geometry" />
        </mxCell>
        <mxCell id="WfT6F_lpD8eF-kmQsFi5-3" value="&lt;h3&gt;&lt;font face=&quot;Garamond&quot;&gt;Admin&lt;/font&gt;&lt;/h3&gt;" style="rounded=0;whiteSpace=wrap;html=1;" parent="1" vertex="1">
          <mxGeometry x="80" y="120" width="110" height="40" as="geometry" />
        </mxCell>
        <mxCell id="WfT6F_lpD8eF-kmQsFi5-4" value="&lt;h3&gt;&lt;font face=&quot;Garamond&quot;&gt;Doctor&lt;/font&gt;&lt;/h3&gt;" style="rounded=0;whiteSpace=wrap;html=1;" parent="1" vertex="1">
          <mxGeometry x="690" y="120" width="110" height="40" as="geometry" />
        </mxCell>
        <mxCell id="WfT6F_lpD8eF-kmQsFi5-5" value="" style="endArrow=classic;html=1;rounded=0;exitX=0.5;exitY=0;exitDx=0;exitDy=0;entryX=0;entryY=0.5;entryDx=0;entryDy=0;" parent="1" source="WfT6F_lpD8eF-kmQsFi5-3" target="WfT6F_lpD8eF-kmQsFi5-1" edge="1">
          <mxGeometry width="50" height="50" relative="1" as="geometry">
            <mxPoint x="130" y="100" as="sourcePoint" />
            <mxPoint x="180" y="50" as="targetPoint" />
            <Array as="points">
              <mxPoint x="135" y="50" />
            </Array>
          </mxGeometry>
        </mxCell>
        <mxCell id="WfT6F_lpD8eF-kmQsFi5-6" value="" style="endArrow=classic;html=1;rounded=0;exitX=0.5;exitY=0;exitDx=0;exitDy=0;entryX=1;entryY=0.5;entryDx=0;entryDy=0;" parent="1" source="WfT6F_lpD8eF-kmQsFi5-4" target="WfT6F_lpD8eF-kmQsFi5-1" edge="1">
          <mxGeometry width="50" height="50" relative="1" as="geometry">
            <mxPoint x="510" y="160" as="sourcePoint" />
            <mxPoint x="765" y="90" as="targetPoint" />
            <Array as="points">
              <mxPoint x="745" y="50" />
            </Array>
          </mxGeometry>
        </mxCell>
        <mxCell id="hp8xiV_DVQB9SWAJ_sdn-1" value="" style="ellipse;whiteSpace=wrap;html=1;aspect=fixed;fontFamily=Garamond;" vertex="1" parent="1">
          <mxGeometry x="380" y="140" width="70" height="70" as="geometry" />
        </mxCell>
      </root>
    </mxGraphModel>
  </diagram>
</mxfile>
